<svg id="Layer_1" data-name="Layer 1" xmlns="http://www.w3.org/2000/svg" xmlns:xlink="http://www.w3.org/1999/xlink" viewBox="0 0 3623.83 1128.96"><defs><style>.cls-1{fill:#97c5e5;}.cls-2{fill:#3a5872;}.cls-3{fill:#3c8ccb;}.cls-4{fill:#7e858f;}.cls-5{fill:url(#linear-gradient);}.cls-6{fill:#92c3e9;}.cls-7{fill:#99c4e7;opacity:0.63;}.cls-8{fill:#3f5a77;}.cls-9{fill:#d5e8f5;}.cls-10{fill:url(#linear-gradient-2);}.cls-11{fill:#6d6e71;}.cls-12{fill:#91989e;}.cls-13{fill:#4666a9;}.cls-14{fill:#848689;}.cls-15{fill:#391020;}.cls-16{fill:#fb5058;}</style><linearGradient id="linear-gradient" x1="3357.18" y1="786.3" x2="3652.64" y2="786.3" gradientUnits="userSpaceOnUse"><stop offset="0.04" stop-color="#fff"/><stop offset="0.89" stop-color="#959293"/><stop offset="1" stop-color="#646464"/></linearGradient><linearGradient id="linear-gradient-2" x1="3210.09" y1="1562.56" x2="3335.27" y2="1562.56" gradientTransform="translate(-27.44 1800.29) rotate(-41.13)" xlink:href="#linear-gradient"/></defs><path class="cls-1" d="M3514.85,973l-5.49-21.31a102.48,102.48,0,0,0-12.47-200.84l2.8-21.83c61.84,7.94,108.47,61,108.47,123.45A124.4,124.4,0,0,1,3514.85,973Z" transform="translate(-37.35 -32.84)"/><path class="cls-2" d="M3483.7,990.21c-4.41,0-8.87-.21-13.24-.63l2.09-21.9c3.68.36,7.43.53,11.15.53a116.15,116.15,0,0,0,111.52-84.51l21.19,5.93A138.23,138.23,0,0,1,3483.7,990.21Z" transform="translate(-37.35 -32.84)"/><path class="cls-3" d="M3519.35,985.33a138.11,138.11,0,0,1-93.59-8.09" transform="translate(-37.35 -32.84)"/><path class="cls-3" d="M3483.7,1001a147.31,147.31,0,0,1-62.58-13.79l9.27-19.94a127.23,127.23,0,0,0,86.12,7.44L3522.2,996A149.18,149.18,0,0,1,3483.7,1001Z" transform="translate(-37.35 -32.84)"/><path class="cls-3" d="M3610.39,936.77l-18.33-12.17a130.2,130.2,0,0,0-56.3-191.09l8.83-20.15a152.2,152.2,0,0,1,65.8,223.41Z" transform="translate(-37.35 -32.84)"/><path class="cls-4" d="M3557.14,763.21a115.74,115.74,0,0,0-73.44-26.34,114.5,114.5,0,0,0-70,23.62L3400.35,743a136.35,136.35,0,0,1,83.35-28.12,137.77,137.77,0,0,1,87.44,31.37Z" transform="translate(-37.35 -32.84)"/><path class="cls-5" d="M3648.61,889.28l-23.43-5.22a145.67,145.67,0,0,0,3.46-31.65c0-80-65.08-145.08-145.08-145.08A145.28,145.28,0,0,0,3375.11,756l-17.93-15.95a169.27,169.27,0,0,1,126.38-56.75c93.23,0,169.08,75.85,169.08,169.08A170.42,170.42,0,0,1,3648.61,889.28Z" transform="translate(-37.35 -32.84)"/><path class="cls-6" d="M3334.15,810.78l-21.32-5.44a174.84,174.84,0,0,1,61.61-94.09,172.13,172.13,0,0,1,106.94-36.78h1.46a174.52,174.52,0,0,1,41,5.22L3518.54,701a152.19,152.19,0,0,0-184.39,109.75Z" transform="translate(-37.35 -32.84)"/><path class="cls-7" d="M3533.89,992l-6.09-16.93a130.55,130.55,0,0,0,57.33-40.86l14,11.31A148.4,148.4,0,0,1,3533.89,992Z" transform="translate(-37.35 -32.84)"/><path class="cls-7" d="M3356.05,826.15l-17.63-3.61A148.44,148.44,0,0,1,3505.6,705.73l-2.64,17.8a133,133,0,0,0-19.26-1.41C3422.07,722.12,3368.39,765.87,3356.05,826.15Z" transform="translate(-37.35 -32.84)"/><path class="cls-8" d="M3483.56,1029.58v-22c85.81,0,155.62-69.82,155.62-155.63h22C3661.18,949.9,3581.5,1029.58,3483.56,1029.58Z" transform="translate(-37.35 -32.84)"/><path class="cls-9" d="M3630.13,799.56a152.73,152.73,0,0,0-60.69-76.73l11.92-18.49a174.86,174.86,0,0,1,69.49,87.83Z" transform="translate(-37.35 -32.84)"/><path class="cls-1" d="M3520.15,881.2l-6.6-4.53a44.14,44.14,0,0,0-61-61.62l-4.45-6.65a52.14,52.14,0,0,1,72,72.8Z" transform="translate(-37.35 -32.84)"/><path class="cls-3" d="M3532.54,844.49a55.56,55.56,0,0,0-13.3-29.34,56.2,56.2,0,0,0-52.18-18.21l-1.43-7.87a63.89,63.89,0,0,1,74.84,54.37Z" transform="translate(-37.35 -32.84)"/><path class="cls-10" d="M3415.43,851.25l-10-.1A71.64,71.64,0,0,1,3531,804.67a72.6,72.6,0,0,1,9,12.89l-8.78,4.78a61.65,61.65,0,0,0-115.8,28.91Z" transform="translate(-37.35 -32.84)"/><path class="cls-7" d="M3422.19,882.83a63.28,63.28,0,0,1,13.43-78.6,64.42,64.42,0,0,1,7.46-5.62l4.33,6.74a55.12,55.12,0,0,0-18.26,73.53Z" transform="translate(-37.35 -32.84)"/><path class="cls-9" d="M3509.67,793.7a64.44,64.44,0,0,0-40.59-7.54l-1.45-9.9a74.55,74.55,0,0,1,46.92,8.72Z" transform="translate(-37.35 -32.84)"/><path class="cls-1" d="M3477,904.64A53.12,53.12,0,0,1,3433,821.51l8.25,5.65a43.14,43.14,0,0,0,59.56,60.24l5.56,8.31A52.78,52.78,0,0,1,3477,904.64Z" transform="translate(-37.35 -32.84)"/><path class="cls-2" d="M3423.78,876.8a59,59,0,0,1,14.42-69.56c1.42-1.24,2.91-2.42,4.43-3.51l5.83,8.12c-1.26.91-2.5,1.89-3.68,2.92a48.94,48.94,0,0,0-12,57.73Z" transform="translate(-37.35 -32.84)"/><path class="cls-3" d="M3428.39,819a58.61,58.61,0,0,1,32.16-23.53" transform="translate(-37.35 -32.84)"/><path class="cls-3" d="M3432.54,821.79l-8.3-5.58a63.54,63.54,0,0,1,34.92-25.54l2.79,9.6a53.66,53.66,0,0,0-29.41,21.52Z" transform="translate(-37.35 -32.84)"/><path class="cls-3" d="M3476.85,916.25A64.89,64.89,0,0,1,3412.52,860l9.91-1.31a54.9,54.9,0,0,0,70.88,45.07l3,9.54A64.65,64.65,0,0,1,3476.85,916.25Z" transform="translate(-37.35 -32.84)"/><path class="cls-4" d="M3478.56,910.18l-.28-10a48.7,48.7,0,0,0,46.28-38.88l9.8,2a58.1,58.1,0,0,1-18.9,32.42A58.73,58.73,0,0,1,3478.56,910.18Z" transform="translate(-37.35 -32.84)"/><path class="cls-6" d="M3512.37,918.23l-4.55-8.91A64.23,64.23,0,0,0,3536,823.25l8.93-4.51a74.26,74.26,0,0,1-32.53,99.49Z" transform="translate(-37.35 -32.84)"/><path class="cls-7" d="M3414.82,854a62.11,62.11,0,0,1,7.78-32.63l5.24,2.92a56.14,56.14,0,0,0-7,29.48Z" transform="translate(-37.35 -32.84)"/><path class="cls-7" d="M3510.35,903.82l-3.24-5.05a56.17,56.17,0,0,0,18.58-74.87l5.22-3a62.2,62.2,0,0,1-20.56,82.88Z" transform="translate(-37.35 -32.84)"/><path class="cls-8" d="M3420,901.41a75.77,75.77,0,0,1,7.23-106.79l6.58,7.53a65.75,65.75,0,0,0-6.27,92.68Z" transform="translate(-37.35 -32.84)"/><path class="cls-9" d="M3475.81,927.77a74.72,74.72,0,0,1-36.39-9.48l4.89-8.72a64.45,64.45,0,0,0,40.59,7.54l1.45,9.9A73.07,73.07,0,0,1,3475.81,927.77Z" transform="translate(-37.35 -32.84)"/><path class="cls-3" d="M1359.43,1035a132.92,132.92,0,0,1-52.07-10.54,123.19,123.19,0,0,1-22.4-12.19,156.13,156.13,0,0,1-20.11-16.48,129.68,129.68,0,0,1-28.34-42.18,133.89,133.89,0,0,1,0-104.14,130.26,130.26,0,0,1,70.85-70.85,133.07,133.07,0,0,1,103.81,0,129,129,0,0,1,42.51,28.34l-39.54,39.88a73.26,73.26,0,0,0-24.88-17,77.52,77.52,0,0,0-29.83-5.77,74.61,74.61,0,0,0-30.15,6.1,78.63,78.63,0,0,0-41.19,41.19,77.16,77.16,0,0,0,0,60.14,78,78,0,0,0,16.64,24.71,78.82,78.82,0,0,0,24.55,16.65,74.77,74.77,0,0,0,30.15,6.09,77.7,77.7,0,0,0,29.83-5.76,73.29,73.29,0,0,0,24.88-17l39.54,39.55a126.57,126.57,0,0,1-42.51,28.67A132.08,132.08,0,0,1,1359.43,1035Z" transform="translate(-37.35 -32.84)"/><path class="cls-3" d="M1640.63,850.71h25.14l-78,111.19V1029h-39.21V961.9l-77.74-111.19h47.75l49.59,70.82,49.6-70.82Z" transform="translate(-37.35 -32.84)"/><path class="cls-3" d="M1758.5,1029h-84.89V850.94h74.28a81,81,0,0,1,16.49,1.61,58.58,58.58,0,0,1,14.19,4.85A46.75,46.75,0,0,1,1798,874q8.29,12.45,8.3,29.52,0,15.22-6.92,26.53a48.73,48.73,0,0,1,15.11,18.23,54.29,54.29,0,0,1,5.19,23.76,56.39,56.39,0,0,1-4.84,23.29A53.54,53.54,0,0,1,1801,1014a56.94,56.94,0,0,1-19.15,11.19A70,70,0,0,1,1758.5,1029Zm-45.67-112.8h39a25.74,25.74,0,0,0,4.15-.58,18.62,18.62,0,0,0,5.54-2,11.84,11.84,0,0,0,4-3.46q1.5-2.07,1.5-6.69a28.4,28.4,0,0,0-.35-4.15,8.82,8.82,0,0,0-2.08-4.38,12.67,12.67,0,0,0-5.65-3.46,34.73,34.73,0,0,0-11.07-1.38h-35.06Zm0,73.59h45.67a45.45,45.45,0,0,0,5-.46,25.72,25.72,0,0,0,7.38-2.2,18.24,18.24,0,0,0,6.69-5.3q2.88-3.57,2.89-9.8c0-3.23-.54-5.66-1.62-7.27a12,12,0,0,0-3.46-3.58q-7.6-5.76-23.07-5.76h-39.44Z" transform="translate(-37.35 -32.84)"/><path class="cls-3" d="M1874.3,889.92v26.53h72.2v39.22h-72.2v34.14H1949V1029h-114V850.71h114v39.21Z" transform="translate(-37.35 -32.84)"/><path class="cls-3" d="M2111.44,1029h-48l-32.76-46.83h-20.3V1029h-39.22V850.71h65.75a95.52,95.52,0,0,1,27.79,3.81A69.44,69.44,0,0,1,2087,865.7a71.08,71.08,0,0,1,9.58,9.58,51.72,51.72,0,0,1,7,11.18,63.44,63.44,0,0,1,6,27.46,71.37,71.37,0,0,1-5.07,26.75A61.91,61.91,0,0,1,2090,962.36a60.34,60.34,0,0,1-16.84,12Zm-101-86h26.76q16.38.46,25.37-8.53,7.84-7.85,7.85-20.53,0-24-33.45-24H2010.4Z" transform="translate(-37.35 -32.84)"/><path class="cls-3" d="M2321.39,1032.32h-4.62a163.56,163.56,0,0,1-59.64-13.18,121.88,121.88,0,0,1-26-16.15,74,74,0,0,1-17.46-20.1l47.78-27.68a27.33,27.33,0,0,0,7.74,7.9,69.88,69.88,0,0,0,12.86,7.25,85.91,85.91,0,0,0,16.31,5.28,83.13,83.13,0,0,0,18.12,2h1.65a69.52,69.52,0,0,0,18.29-1.31,87.83,87.83,0,0,0,21.26-6.92q18.12-8.24,19.77-22.08a12.57,12.57,0,0,0-.66-6.1,13,13,0,0,0-2.64-3.79q-5.93-6.58-18.12-9.89-15.49-4.6-35.59-4.61c-3.74,0-9.06-.21-16-.66a153.13,153.13,0,0,1-22.57-3.29q-30.65-7.25-48.11-24.72-19.12-19.77-17.14-48.77v-.33a76.73,76.73,0,0,1,6.43-26,63.36,63.36,0,0,1,15.65-21.42q16.82-16.16,43.17-22.74a142.76,142.76,0,0,1,35.43-4.29,144.28,144.28,0,0,1,36.41,4.62q20.43,4.94,35.43,14.5t23.56,22.08l-46.8,29.65q-2-3-8.23-6.92T2340.17,828a103.32,103.32,0,0,0-22.74-2.8,76.78,76.78,0,0,0-21.42,2.47q-8.57,2-13.35,5a28,28,0,0,0-7.25,6.09,15.74,15.74,0,0,0-3.13,5.94,19.94,19.94,0,0,0-.65,4.11,13.72,13.72,0,0,0,.82,5.44,9.28,9.28,0,0,0,1.81,2.8q4.95,4.95,17.8,8.08a119.52,119.52,0,0,0,28.34,3.13q31.63,0,55.85,8.4t39.06,24.22a69.69,69.69,0,0,1,14.17,23.56,62,62,0,0,1,3,27.85,73.54,73.54,0,0,1-14.83,38.39q-12.86,17-35.26,27.85a142.33,142.33,0,0,1-29.82,10.21A140.46,140.46,0,0,1,2321.39,1032.32Z" transform="translate(-37.35 -32.84)"/><path class="cls-3" d="M2556.94,926.83,2658,1029h-55.13L2527,952.21l-21.68,18V1029h-39.22V850.71h39.22V919l81-68.28h60.9Z" transform="translate(-37.35 -32.84)"/><path class="cls-3" d="M2818.76,850.71h25.14l-78,111.19V1029h-39.21V961.9L2649,850.71h47.75l49.59,70.82,49.6-70.82Z" transform="translate(-37.35 -32.84)"/><path class="cls-3" d="M2851.74,1029V850.71H2891v139.1h75.89V1029Z" transform="translate(-37.35 -32.84)"/><path class="cls-3" d="M2978.84,1029V850.71h39.22V1029Z" transform="translate(-37.35 -32.84)"/><path class="cls-3" d="M3214.13,850.71V1029h-42.21l-91.58-119.26V1029h-39.22V850.71h43.37l90.43,117.88V850.71h39.21Z" transform="translate(-37.35 -32.84)"/><path class="cls-3" d="M3277.11,889.92v26.53h72.2v39.22h-72.2v34.14h74.74V1029h-114V850.71h114v39.21Z" transform="translate(-37.35 -32.84)"/><path class="cls-11" d="M1246.37,695.33h-19.5V606.66h32.69a48.25,48.25,0,0,1,13.6,1.83,33.81,33.81,0,0,1,11.07,5.51,27.58,27.58,0,0,1,8.48,10.32,31.81,31.81,0,0,1,3,13.77,34.4,34.4,0,0,1-2.53,13.3,28.84,28.84,0,0,1-7.22,10.79,32.16,32.16,0,0,1-11.48,7.34,40.09,40.09,0,0,1-14.33,2.52h-13.77Zm0-42.79h13.31q8.14.23,12.62-4.24c2.59-2.53,3.9-5.93,3.9-10.21a10.64,10.64,0,0,0-1.27-5.8,11.1,11.1,0,0,0-2.52-2.81,15.84,15.84,0,0,0-5.51-2.46,29,29,0,0,0-7.34-.86h-13.19Z" transform="translate(-37.35 -32.84)"/><path class="cls-11" d="M1346.4,697.74a46.65,46.65,0,0,1-18.24-3.67,46.15,46.15,0,0,1-24.89-24.9,46.47,46.47,0,0,1-3.67-18.24,47.56,47.56,0,0,1,3.67-18.23,52.39,52.39,0,0,1,4.3-7.86,44.16,44.16,0,0,1,5.68-6.94,46,46,0,0,1,7-5.8,55.32,55.32,0,0,1,7.86-4.3,46.65,46.65,0,0,1,18.24-3.67,47.79,47.79,0,0,1,18.24,3.67,55.32,55.32,0,0,1,7.86,4.3,41.72,41.72,0,0,1,6.94,5.8,40.79,40.79,0,0,1,5.79,6.94,53.3,53.3,0,0,1,4.3,7.86,47.56,47.56,0,0,1,3.67,18.23,46.47,46.47,0,0,1-3.67,18.24,53.3,53.3,0,0,1-4.3,7.86,45.77,45.77,0,0,1-12.73,12.74,55.32,55.32,0,0,1-7.86,4.3A47.79,47.79,0,0,1,1346.4,697.74Zm0-74.11a26.27,26.27,0,0,0-10.61,2.18,27.48,27.48,0,0,0-14.51,14.51,26.93,26.93,0,0,0,0,21.23,27.48,27.48,0,0,0,14.51,14.51,26.91,26.91,0,0,0,21.22,0,27.48,27.48,0,0,0,14.51-14.51,26.93,26.93,0,0,0,0-21.23A27.48,27.48,0,0,0,1357,625.81,26.27,26.27,0,0,0,1346.4,623.63Z" transform="translate(-37.35 -32.84)"/><path class="cls-11" d="M1540.38,606.66,1510,695.33h-19l-20.19-55.64-20.19,55.64h-19L1401,606.66h20.65l19.62,57,20.76-57h17.44l20.76,57,19.62-57Z" transform="translate(-37.35 -32.84)"/><path class="cls-11" d="M1572,626.16v13.19H1608v19.5H1572v17h37.17v19.5h-56.67V606.66h56.67v19.5Z" transform="translate(-37.35 -32.84)"/><path class="cls-11" d="M1698.57,695.33h-23.86L1658.42,672h-10.1v23.29h-19.5V606.66h32.7a47.66,47.66,0,0,1,13.82,1.89,34.7,34.7,0,0,1,11.07,5.56,35.68,35.68,0,0,1,4.76,4.76,25.93,25.93,0,0,1,3.5,5.57,31.47,31.47,0,0,1,3,13.65,35.5,35.5,0,0,1-2.52,13.3,30.88,30.88,0,0,1-7.23,10.79,30.06,30.06,0,0,1-8.37,6Zm-50.25-42.79h13.31q8.14.23,12.62-4.24a13.82,13.82,0,0,0,3.9-10.21q0-11.94-16.63-11.93h-13.2Z" transform="translate(-37.35 -32.84)"/><path class="cls-11" d="M1731.38,626.16v13.19h35.9v19.5h-35.9v17h37.16v19.5h-56.67V606.66h56.67v19.5Z" transform="translate(-37.35 -32.84)"/><path class="cls-11" d="M1821.2,695.33h-33V606.66h33a48.2,48.2,0,0,1,17.72,3.26,42.87,42.87,0,0,1,24.15,23.69,44.38,44.38,0,0,1,3.32,17.1,46.36,46.36,0,0,1-3.15,17.09A42.11,42.11,0,0,1,1854,682a35.76,35.76,0,0,1-6.65,5.62,46.83,46.83,0,0,1-7.8,4.13A48.13,48.13,0,0,1,1821.2,695.33Zm-13.54-19.5h13.54a28.53,28.53,0,0,0,10.38-1.84A23,23,0,0,0,1845,660.86a26.69,26.69,0,0,0,1.89-10.15,25.22,25.22,0,0,0-1.89-9.81,22.6,22.6,0,0,0-5.34-7.8,24.84,24.84,0,0,0-8.14-5.11,28.26,28.26,0,0,0-10.32-1.83h-13.54Z" transform="translate(-37.35 -32.84)"/><path class="cls-11" d="M1970.67,695.33h-42.22V606.77h36.94a40.45,40.45,0,0,1,8.2.8,29.36,29.36,0,0,1,7.06,2.41,23.17,23.17,0,0,1,9.63,8.26,25.89,25.89,0,0,1,4.13,14.68,24.83,24.83,0,0,1-3.44,13.2,24.2,24.2,0,0,1,7.51,9.06,27,27,0,0,1,2.59,11.81,28.17,28.17,0,0,1-2.41,11.59,26.49,26.49,0,0,1-6.89,9.29,28.28,28.28,0,0,1-9.52,5.57A34.72,34.72,0,0,1,1970.67,695.33ZM1948,639.23h19.39a12.9,12.9,0,0,0,2.06-.28,9.44,9.44,0,0,0,2.76-1,5.83,5.83,0,0,0,2-1.72,5.75,5.75,0,0,0,.75-3.33,14.73,14.73,0,0,0-.17-2.06,4.51,4.51,0,0,0-1-2.18,6.35,6.35,0,0,0-2.81-1.72,17.28,17.28,0,0,0-5.51-.69H1948Zm0,36.6h22.72a23.75,23.75,0,0,0,2.46-.23,12.82,12.82,0,0,0,3.67-1.09,9.1,9.1,0,0,0,3.33-2.64,7.53,7.53,0,0,0,1.43-4.88,6.61,6.61,0,0,0-.8-3.61,6.12,6.12,0,0,0-1.72-1.78q-3.78-2.86-11.47-2.87H1948Z" transform="translate(-37.35 -32.84)"/><path class="cls-11" d="M2094.33,606.66h12.5L2068.06,662v33.38h-19.5V662l-38.66-55.29h23.74l24.67,35.21L2083,606.66Z" transform="translate(-37.35 -32.84)"/><path class="cls-12" d="M516.24,262c-18.44,22.67-30.53,10.56-45.34,48.59,10.77,58,19.27,103.31,12.28,110.26-21.37,21.25-42.54-2-55.5-6.93,5.37,11.91-8.18,21.05-10.29,30.57-2.78,12.55-6.3,20.76-23,13.53-11.55-5,22.65,20.16-15.1,19.67-9.07-.12-40.54,92.19-84.71,60.3s-87.78-44.19-90.66-39.58c-1.39,2.24-29.19,29.08-55,61.84a723.79,723.79,0,0,0,33.14,102.37H960.13a721,721,0,0,0,31-93.76c-17.57-38.35-37.52-70.36-69.47-70.26C891.22,506.8,819.1,564.72,804.09,527c-17.25-43.35-51-11.2-39.71-49.1-10.42,4.2-21-6.81-21-6.81,1.31-14.48-10.79-32.1-13.17-37.69-5.54-13-29.85,11.55-38.87-5.67-10.85-20.74,24.14-61.48-.55-101.07-27.33-4.27-5.18-.86-10.79-13.56-5.9-13.34-14.32-24.44-22.24-35.54,0,0-10.37-9.71-12.86-13.19-6.76-9.51,20.63,32.82,10.92,48.14,0,0-3.23-25.58-30-51.09-19.4-18.47-23-86.13-12.51-107.2a326.46,326.46,0,0,1,19.29-33.4q-47.6-1.2-95.22-.57C545.83,186.9,527.34,245.13,516.24,262Z" transform="translate(-37.35 -32.84)"/><path class="cls-12" d="M356,918.25c59.86,58.57,131.32,111.17,215.08,157.4,83.76-46.23,155.21-98.83,215-157.4Z" transform="translate(-37.35 -32.84)"/><path class="cls-13" d="M698.66,376l-73.55-.18-27.87-28.15a31,31,0,1,0-24.94,12.42,30.57,30.57,0,0,0,21.82-8.95l29.07,29.35,74.4.19A11,11,0,0,1,698.66,376Z" transform="translate(-37.35 -32.84)"/><path class="cls-13" d="M948.77,629.5l-88.13-98.68a33.37,33.37,0,0,1-4.77,1.51L946.79,634.2h24.26l1.39-4.62Z" transform="translate(-37.35 -32.84)"/><path class="cls-14" d="M601.16,492.14a18.61,18.61,0,1,1,18.62-18.52,18.57,18.57,0,0,1-18.62,18.52" transform="translate(-37.35 -32.84)"/><path class="cls-13" d="M734.86,662.74,624.5,553.32,538.42,553l-35.87-36.22a30.91,30.91,0,1,0-3.85,2.74l37.8,38.09,86,.38,105.82,104.8Z" transform="translate(-37.35 -32.84)"/><path class="cls-15" d="M960.69,745.4" transform="translate(-37.35 -32.84)"/><path class="cls-13" d="M846,662.63l-183.45-185-28.9-.11a30.81,30.81,0,1,0-.23,4.67l27.2.12L839.46,662.63C840.72,662.54,843.2,662.83,846,662.63Z" transform="translate(-37.35 -32.84)"/><path class="cls-13" d="M706.53,987.15H590.78a31,31,0,1,0-.12,5.75H699.25Z" transform="translate(-37.35 -32.84)"/><path class="cls-16" d="M834.34,915.69c-1.92,2-3.75,4.16-5.71,6.19-65.83,68.21-146.93,129.17-241.07,181.2l-18.66,10.31-18.66-10.31c-94.13-52-175.24-113-241.07-181.2-2-2-3.79-4.14-5.72-6.19H246.38c10.45,12.09,21.14,24,32.31,35.6,68.87,71.35,153.34,134.9,251.06,188.86l39.15,21.64L608,1140.15c97.83-54,182.3-117.58,251.08-188.86,11.18-11.59,21.87-23.51,32.31-35.6Z" transform="translate(-37.35 -32.84)"/><path class="cls-16" d="M56.92,521.68A863.5,863.5,0,0,0,94.49,660.07h45.32c-17.68-45.22-31.55-94.24-41.22-146.16-10-54.13-16-113.46-17.59-176.35L80.35,314,101,302.7c38.1-20.87,69.39-45.56,95.67-75.47,28.09-31.94,49.24-68.46,64.66-111.64l8.13-22.67,24-2.65a2501.14,2501.14,0,0,1,550.83,0l24,2.65,8.14,22.67c15.47,43.14,36.63,79.65,64.7,111.64,26.26,29.91,57.55,54.6,95.68,75.48L1057.43,314l-.64,23.57c-1.64,63.15-7.55,122.48-17.59,176.34A805.19,805.19,0,0,1,998,660.07h45.32a860.27,860.27,0,0,0,37.55-138.39c10.45-56.12,16.6-117.7,18.28-183l1.34-49.38-43.35-23.75c-33.66-18.43-61.2-40.11-84.2-66.3-24.47-27.84-43-59.88-56.64-97.94L899.2,53.72,849,48.16a2567.45,2567.45,0,0,0-560.16,0l-50.24,5.56-17.06,47.59c-13.67,38.14-32.2,70.17-56.65,97.95-23,26.18-50.54,47.86-84.2,66.29L37.35,289.3l1.31,49.37C40.33,403.79,46.48,465.36,56.92,521.68Z" transform="translate(-37.35 -32.84)"/><path class="cls-16" d="M329.6,883.66h-79l36.06-134.51c3.32-13-4.28-23.72-17.56-23.72H197.94L155.48,883.66h-79c-21.83,0-34.87-17.79-28.94-39.61L87.87,693.64H372.54c26.34,0,42,21.35,34.88,47.69L379.9,844.05C374,865.87,351.43,883.66,329.6,883.66Z" transform="translate(-37.35 -32.84)"/><path class="cls-16" d="M543.82,852.11h190l-8.54,31.55H440.39c-26.09,0-41.75-21.35-34.63-47.44l25.38-94.89C438,715,465.07,693.64,491.4,693.64H776.31l-8.54,31.79h-190c-13,0-26.57,10.68-30.13,23.72l-21.11,79.24C523,841.44,530.78,852.11,543.82,852.11Z" transform="translate(-37.35 -32.84)"/><path class="cls-16" d="M839.42,693.64h79.23L882.59,828.39c-3.55,13.05,4.28,23.72,17.32,23.72h190l-8.54,31.55H796.48c-26.1,0-41.75-21.35-34.64-47.44l27.52-103C795.06,711.43,817.59,693.64,839.42,693.64Z" transform="translate(-37.35 -32.84)"/><path class="cls-13" d="M593.45,605.87l-.08.08v-.08h-212a31.08,31.08,0,1,0-.16,5.25H592.06l51.2,51.33h6.61Z" transform="translate(-37.35 -32.84)"/></svg>